<svg width="191" height="42" viewBox="0 0 191 42" fill="none" xmlns="http://www.w3.org/2000/svg">
<g filter="url(#filter0_d_6_28)">
<path d="M14.61 32C13.87 32 13.19 31.82 12.57 31.46C11.97 31.1 11.49 30.61 11.13 29.99C10.77 29.37 10.59 28.69 10.59 27.95V26.51H14.19V27.83C14.19 27.99 14.24 28.12 14.34 28.22C14.44 28.32 14.57 28.37 14.73 28.37H27.99C28.15 28.37 28.28 28.32 28.38 28.22C28.5 28.12 28.56 27.99 28.56 27.83V23.54C28.56 23.4 28.5 23.28 28.38 23.18C28.28 23.06 28.15 23 27.99 23H14.61C13.87 23 13.19 22.82 12.57 22.46C11.97 22.1 11.49 21.62 11.13 21.02C10.77 20.4 10.59 19.72 10.59 18.98V14.45C10.59 13.71 10.77 13.03 11.13 12.41C11.49 11.79 11.97 11.3 12.57 10.94C13.19 10.58 13.87 10.4 14.61 10.4H28.14C28.88 10.4 29.55 10.58 30.15 10.94C30.77 11.3 31.26 11.79 31.62 12.41C32 13.03 32.19 13.71 32.19 14.45V15.89H28.56V14.57C28.56 14.41 28.5 14.28 28.38 14.18C28.28 14.08 28.15 14.03 27.99 14.03H14.73C14.57 14.03 14.44 14.08 14.34 14.18C14.24 14.28 14.19 14.41 14.19 14.57V18.86C14.19 19 14.24 19.13 14.34 19.25C14.44 19.35 14.57 19.4 14.73 19.4H28.14C28.88 19.4 29.55 19.58 30.15 19.94C30.77 20.3 31.26 20.79 31.62 21.41C32 22.01 32.19 22.68 32.19 23.42V27.95C32.19 28.69 32 29.37 31.62 29.99C31.26 30.61 30.77 31.1 30.15 31.46C29.55 31.82 28.88 32 28.14 32H14.61ZM39.4259 32C38.6859 32 38.0059 31.82 37.3859 31.46C36.7659 31.1 36.2759 30.61 35.9159 29.99C35.5559 29.37 35.3759 28.69 35.3759 27.95V14.45C35.3759 13.71 35.5559 13.03 35.9159 12.41C36.2759 11.79 36.7659 11.3 37.3859 10.94C38.0059 10.58 38.6859 10.4 39.4259 10.4H52.9259C53.6659 10.4 54.3359 10.58 54.9359 10.94C55.5559 11.3 56.0459 11.79 56.4059 12.41C56.7859 13.03 56.9759 13.71 56.9759 14.45V27.95C56.9759 28.69 56.7859 29.37 56.4059 29.99C56.0459 30.61 55.5559 31.1 54.9359 31.46C54.3359 31.82 53.6659 32 52.9259 32H39.4259ZM39.5159 28.37H52.8059C52.9459 28.37 53.0659 28.32 53.1659 28.22C53.2859 28.12 53.3459 27.99 53.3459 27.83V14.57C53.3459 14.41 53.2859 14.28 53.1659 14.18C53.0659 14.08 52.9459 14.03 52.8059 14.03H39.5159C39.3759 14.03 39.2459 14.08 39.1259 14.18C39.0259 14.28 38.9759 14.41 38.9759 14.57V27.83C38.9759 27.99 39.0259 28.12 39.1259 28.22C39.2459 28.32 39.3759 28.37 39.5159 28.37ZM68.1996 32V14.03H59.1996V10.4H80.7996V14.03H71.7996V32H68.1996ZM83.1033 32V10.4H102.933V14.03H86.7333V19.4H99.7833V23H86.7333V28.37H102.933V32H83.1033ZM123.472 32L116.842 24.08H121.552L127.522 31.16V32H123.472ZM106.012 32V10.43H123.562C124.302 10.43 124.972 10.62 125.572 11C126.192 11.36 126.682 11.85 127.042 12.47C127.422 13.07 127.612 13.74 127.612 14.48V20.42C127.612 21.14 127.422 21.81 127.042 22.43C126.682 23.05 126.192 23.54 125.572 23.9C124.972 24.26 124.302 24.44 123.562 24.44L109.612 24.47V32H106.012ZM110.152 20.81H123.442C123.582 20.81 123.702 20.76 123.802 20.66C123.922 20.56 123.982 20.43 123.982 20.27V14.57C123.982 14.43 123.922 14.31 123.802 14.21C123.702 14.09 123.582 14.03 123.442 14.03H110.152C110.012 14.03 109.882 14.09 109.762 14.21C109.662 14.31 109.612 14.43 109.612 14.57V20.27C109.612 20.43 109.662 20.56 109.762 20.66C109.882 20.76 110.012 20.81 110.152 20.81ZM130.528 32V10.4H134.098V32H130.528ZM141.174 32C140.434 32 139.754 31.82 139.134 31.46C138.514 31.1 138.024 30.61 137.664 29.99C137.304 29.37 137.124 28.69 137.124 27.95V10.4H140.724V27.83C140.724 27.99 140.774 28.12 140.874 28.22C140.994 28.32 141.124 28.37 141.264 28.37H154.554C154.694 28.37 154.814 28.32 154.914 28.22C155.034 28.12 155.094 27.99 155.094 27.83V10.4H158.724V27.95C158.724 28.69 158.534 29.37 158.154 29.99C157.794 30.61 157.304 31.1 156.684 31.46C156.084 31.82 155.414 32 154.674 32H141.174ZM162.028 32V10.4H166.138L174.238 20.06L182.308 10.4H186.448V32H182.818V15.44L174.238 25.67L165.628 15.47V32H162.028Z" fill="white"/>
</g>
<path d="M0 0H38V4.34286H4.88571V20.146H26.3889V21.7294V23.3127L4.88571 23.3429V36.9143H38V41.2571H0V0Z" fill="white"/>
<path d="M25.3619 20.146H28.0008C28.8752 20.146 29.5841 20.8549 29.5841 21.7294V21.7294C29.5841 22.6038 28.8752 23.3127 28.0008 23.3127H25.3619V20.146Z" fill="white"/>
<defs>
<filter id="filter0_d_6_28" x="6.59" y="8.4" width="183.858" height="29.6" filterUnits="userSpaceOnUse" color-interpolation-filters="sRGB">
<feFlood flood-opacity="0" result="BackgroundImageFix"/>
<feColorMatrix in="SourceAlpha" type="matrix" values="0 0 0 0 0 0 0 0 0 0 0 0 0 0 0 0 0 0 127 0" result="hardAlpha"/>
<feOffset dy="2"/>
<feGaussianBlur stdDeviation="2"/>
<feComposite in2="hardAlpha" operator="out"/>
<feColorMatrix type="matrix" values="0 0 0 0 0.679167 0 0 0 0 0.546163 0 0 0 0 0.665867 0 0 0 0.67 0"/>
<feBlend mode="normal" in2="BackgroundImageFix" result="effect1_dropShadow_6_28"/>
<feBlend mode="normal" in="SourceGraphic" in2="effect1_dropShadow_6_28" result="shape"/>
</filter>
</defs>
</svg>
